<svg width="84" height="88" viewBox="0 0 84 88" fill="none" xmlns="http://www.w3.org/2000/svg">
<ellipse cx="42" cy="43.9501" rx="42" ry="43.7473" fill="#E8E2FF"/>
<path d="M63.15 38.7941H59.75V35.2527C59.75 34.7657 59.3675 34.3673 58.9 34.3673H57.2C56.7325 34.3673 56.35 34.7657 56.35 35.2527V38.7941H52.95C52.4825 38.7941 52.1 39.1925 52.1 39.6795V41.4502C52.1 41.9372 52.4825 42.3356 52.95 42.3356H56.35V45.877C56.35 46.364 56.7325 46.7624 57.2 46.7624H58.9C59.3675 46.7624 59.75 46.364 59.75 45.877V42.3356H63.15C63.6175 42.3356 64 41.9372 64 41.4502V39.6795C64 39.1925 63.6175 38.7941 63.15 38.7941ZM41.9 41.4502C45.6559 41.4502 48.7 38.2795 48.7 34.3673C48.7 30.4551 45.6559 27.2844 41.9 27.2844C38.1441 27.2844 35.1 30.4551 35.1 34.3673C35.1 38.2795 38.1441 41.4502 41.9 41.4502ZM46.66 43.2209H45.7728C44.5934 43.7854 43.2812 44.1063 41.9 44.1063C40.5188 44.1063 39.2119 43.7854 38.0272 43.2209H37.14C33.1981 43.2209 30 46.5521 30 50.658V52.9599C30 54.4263 31.1422 55.616 32.55 55.616H51.25C52.6578 55.616 53.8 54.4263 53.8 52.9599V50.658C53.8 46.5521 50.6019 43.2209 46.66 43.2209Z" fill="#9197B3"/>
</svg>
